# xmcd
#
# Track frame offsets:
#	150
#	18004
#	35302
#	54998
#	72917
#	90500
#	104900
#	121343
#	139899
#	158379
#	175602
#	195915
#	212402
#	228635
#	241946
#	258188
#	290367
#
# Disc length: 4220 seconds
#
# Revision: 2
# Processed by: cddbd v1.5.2PL0 Copyright (c) Steve Scherf et al.
# Submitted via: audiograbber 1.83.01
#
DISCID=d7107a11
DTITLE=Rascal Flatts - ASK1550
DYEAR=1900
DGENRE=Karaoke
TTITLE0=Rascal Flatts - Backwards
TTITLE1=Rascal Flatts - Bless The Broken Road
TTITLE2=Rascal Flatts - Fast Cars and Freedom
TTITLE3=Rascal Flatts - I Melt
TTITLE4=Rascal Flatts - I'm Movin' On
TTITLE5=Rascal Flatts - Love You Out Loud
TTITLE6=Rascal Flatts - Me and My Gang
TTITLE7=Rascal Flatts - My Wish
TTITLE8=Rascal Flatts - Pieces
TTITLE9=Rascal Flatts - Prayin' For Daylight
TTITLE10=Rascal Flatts - Skin
TTITLE11=Rascal Flatts - Stand
TTITLE12=Rascal Flatts - These Days
TTITLE13=Rascal Flatts - This Everyday Love
TTITLE14=Rascal Flatts - What Hurts The Most
TTITLE15=Rascal Flatts - Life Is A Highway
TTITLE16=data - Data Track
EXTD=
EXTT0=
EXTT1=
EXTT2=
EXTT3=
EXTT4=
EXTT5=
EXTT6=
EXTT7=
EXTT8=
EXTT9=
EXTT10=
EXTT11=
EXTT12=
EXTT13=
EXTT14=
EXTT15=
EXTT16=
PLAYORDER=
